<svg xmlns="http://www.w3.org/2000/svg" viewBox="0 0 37.14 42"><defs><style>.cls-1{fill:#00faf0;}.cls-2{fill:#ff0050;}.cls-3{fill:#fff;}</style></defs><g id="Layer_2" data-name="Layer 2"><g id="Layer_1-2" data-name="Layer 1"><path class="cls-1" d="M14.46,16.53V14.9a16.2,16.2,0,0,0-1.72-.11A12.73,12.73,0,0,0,5.43,38,12.61,12.61,0,0,1,2,29.29,12.8,12.8,0,0,1,14.46,16.53Z"/><path class="cls-1" d="M14.75,35.06a5.82,5.82,0,0,0,5.8-5.59V1.76h5.07A8.41,8.41,0,0,1,25.46,0H18.53V27.71a5.81,5.81,0,0,1-5.79,5.58,5.65,5.65,0,0,1-2.69-.68A5.74,5.74,0,0,0,14.75,35.06Z"/><path class="cls-1" d="M35.1,11.17V9.63a9.47,9.47,0,0,1-5.25-1.56A9.78,9.78,0,0,0,35.1,11.17Z"/><path class="cls-2" d="M29.87,8.08a9.61,9.61,0,0,1-2.38-6.31H25.64A9.77,9.77,0,0,0,29.87,8.08Z"/><path class="cls-2" d="M12.74,21.69a5.8,5.8,0,0,0-2.69,11,5.8,5.8,0,0,1,4.7-9.21,5.48,5.48,0,0,1,1.72.27v-7a13.79,13.79,0,0,0-1.72-.12h-.29V22A5.39,5.39,0,0,0,12.74,21.69Z"/><path class="cls-2" d="M35.1,11.17v5.39a16.48,16.48,0,0,1-9.62-3.1v14a12.72,12.72,0,0,1-20,10.43,12.74,12.74,0,0,0,22.07-8.66v-14a16.43,16.43,0,0,0,9.62,3.1V11.4A11.17,11.17,0,0,1,35.1,11.17Z"/><path class="cls-3" d="M25.48,27.5v-14a16.5,16.5,0,0,0,9.62,3.1V11.17a9.67,9.67,0,0,1-5.25-3.1,9.46,9.46,0,0,1-4.21-6.31H20.57V29.47a5.81,5.81,0,0,1-5.79,5.59,5.74,5.74,0,0,1-4.71-2.42,5.8,5.8,0,0,1,2.69-10.95,5.48,5.48,0,0,1,1.72.27V16.53a12.72,12.72,0,0,0-9,21.38,12.72,12.72,0,0,0,20-10.41Z"/></g></g></svg>