<svg xmlns="http://www.w3.org/2000/svg" viewBox="0 0 96.01 85.09"><defs><style>.cls-1{fill:#fff;}</style></defs><g id="Layer_2" data-name="Layer 2"><g id="Layer_2-2" data-name="Layer 2"><path class="cls-1" d="M96,29.55a33.14,33.14,0,0,1-.62,7.06,42.56,42.56,0,0,1-6.58,13,96.51,96.51,0,0,1-14.63,16C48.86,88.25,49.3,84.92,49.3,84.92S39.18,79.73,18.21,61.65A67.89,67.89,0,0,1,6.15,48.46,38,38,0,0,1,.73,37.12,33.15,33.15,0,0,1,0,29.55C-.41,1.85,30.08-6.38,48,4.89,65.93-6.37,96.41,1.84,96,29.55Z"/></g></g></svg>