<svg xmlns="http://www.w3.org/2000/svg" viewBox="0 0 49.58 56.11"><defs><style>.cls-1{fill:#fff;stroke:#fff;stroke-miterlimit:10;stroke-width:0.25px;}.cls-2{fill:#00faf0;}.cls-3{fill:#ff0050;}</style></defs><g id="Layer_2" data-name="Layer 2"><g id="Layer_1-2" data-name="Layer 1"><path class="cls-1" d="M34,36.74V18a22,22,0,0,0,12.84,4.14V14.93a13.11,13.11,0,0,1-7-4.14,12.76,12.76,0,0,1-5.62-8.43H27.47v37a7.76,7.76,0,0,1-7.74,7.46,7.67,7.67,0,0,1-6.28-3.23A7.75,7.75,0,0,1,17,29a7.38,7.38,0,0,1,2.3.36V22.09a17,17,0,0,0-16.59,17A16.83,16.83,0,0,0,7.31,50.64,17,17,0,0,0,34,36.74Z"/><path class="cls-2" d="M19.31,22.09V19.91a19.31,19.31,0,0,0-2.3-.15A17,17,0,0,0,7.25,50.7,16.89,16.89,0,0,1,2.69,39.13,17.07,17.07,0,0,1,19.31,22.09Z"/><path class="cls-2" d="M19.7,46.83a7.75,7.75,0,0,0,7.73-7.46v-37H34.2A12.12,12.12,0,0,1,34,0H24.75V37A7.77,7.77,0,0,1,17,44.48a7.63,7.63,0,0,1-3.6-.91A7.73,7.73,0,0,0,19.7,46.83Z"/><path class="cls-2" d="M46.86,14.93V12.87a12.76,12.76,0,0,1-7-2.08A13.22,13.22,0,0,0,46.86,14.93Z"/><path class="cls-3" d="M39.88,10.79a12.85,12.85,0,0,1-3.17-8.43H34.23A13.05,13.05,0,0,0,39.88,10.79Z"/><path class="cls-3" d="M17,29A7.75,7.75,0,0,0,13.42,43.6,7.75,7.75,0,0,1,19.7,31.3a7.1,7.1,0,0,1,2.3.37V22.24a19.31,19.31,0,0,0-2.3-.15h-.39v7.25A7.24,7.24,0,0,0,17,29Z"/><path class="cls-3" d="M46.86,14.93v7.19A21.94,21.94,0,0,1,34,18V36.74a17,17,0,0,1-17,17,16.83,16.83,0,0,1-9.73-3.08A17,17,0,0,0,36.74,39.1V20.34a22.07,22.07,0,0,0,12.84,4.13V15.23A16.18,16.18,0,0,1,46.86,14.93Z"/></g></g></svg>