<svg width="137" height="64" viewBox="0 0 137 64" fill="none" xmlns="http://www.w3.org/2000/svg"><g clip-path="url(#clip0)"><path d="M20.7617 26.4506V24.2751C20.0063 24.1845 19.2509 24.124 18.4653 24.124C9.09858 24.124 1.4541 31.7383 1.4541 41.1352C1.4541 46.8761 4.32455 51.9825 8.70577 55.0645C5.86553 52.0127 4.14327 47.9639 4.14327 43.492C4.17348 34.2159 11.5762 26.6621 20.7617 26.4506Z" fill="#00FAF0"></path><path d="M21.1539 51.197C25.3236 51.197 28.738 47.8733 28.889 43.7338V6.72007H35.6573C35.5062 5.96469 35.4457 5.17909 35.4457 4.36328H26.1999V41.377C26.0488 45.5165 22.6345 48.8402 18.4648 48.8402C17.1655 48.8402 15.9267 48.5078 14.8691 47.9337C16.2893 49.9279 18.5856 51.197 21.1539 51.197Z" fill="#00FAF0"></path><path d="M48.3185 19.2899V17.2352C45.7502 17.2352 43.333 16.4799 41.3086 15.1504C43.1215 17.205 45.5689 18.6856 48.3185 19.2899Z" fill="#00FAF0"></path><path d="M41.3387 15.1498C39.3747 12.8837 38.1661 9.95276 38.1661 6.71973H35.6885C36.3532 10.2247 38.438 13.2462 41.3387 15.1498Z" fill="#FF0050"></path><path d="M18.4655 33.3393C14.175 33.3393 10.7002 36.814 10.7002 41.1046C10.7002 44.0959 12.3922 46.6642 14.8699 47.9635C13.9634 46.6944 13.3893 45.1232 13.3893 43.4312C13.3893 39.1406 16.8641 35.6659 21.1547 35.6659C21.9403 35.6659 22.7259 35.7867 23.451 36.0284V26.6013C22.6957 26.5106 21.9403 26.4502 21.1547 26.4502C21.0338 26.4502 20.8827 26.4502 20.7619 26.4502V33.7019C20.0367 33.4601 19.2813 33.3393 18.4655 33.3393Z" fill="#FF0050"></path><path d="M48.3183 19.29V26.4813C43.5141 26.4813 39.1027 24.9403 35.4768 22.3418V41.1055C35.4768 50.4722 27.8626 58.1167 18.4657 58.1167C14.8398 58.1167 11.4859 56.9685 8.73633 55.0347C11.8485 58.3584 16.2599 60.4735 21.185 60.4735C30.5518 60.4735 38.1962 52.8592 38.1962 43.4623V24.6986C41.8221 27.2971 46.2637 28.8381 51.0377 28.8381V19.5922C50.101 19.562 49.1946 19.4713 48.3183 19.29Z" fill="#FF0050"></path><path d="M35.4769 41.1047V22.341C39.1027 24.9395 43.5444 26.4805 48.3184 26.4805V19.2893C45.5386 18.685 43.1214 17.2044 41.3085 15.1498C38.4078 13.2764 36.3229 10.2549 35.6884 6.71973H28.9202V43.7334C28.7691 47.8729 25.3548 51.1966 21.1851 51.1966C18.5866 51.1966 16.2902 49.9276 14.9003 47.9636C12.4226 46.6643 10.7306 44.0658 10.7306 41.1047C10.7306 36.8141 14.2054 33.3394 18.4959 33.3394C19.2815 33.3394 20.0671 33.4602 20.7923 33.702V26.4503C11.6068 26.6618 4.2041 34.2156 4.2041 43.4313C4.2041 47.9031 5.92637 51.9822 8.7666 55.0037C11.5162 56.9375 14.9003 58.0857 18.4959 58.0857C27.8324 58.1159 35.4769 50.4714 35.4769 41.1047Z" fill="white"></path><path d="M70.6174 17.6582H66.6895V23.4293H62.127V27.3573H66.6895V35.3643L62.127 36.0291V40.1686L66.6895 39.5038V46.3627C66.6895 46.9066 66.2362 47.3598 65.6924 47.3598H62.3989V51.2878H67.324C69.1369 51.2878 70.6174 49.8072 70.6174 47.9943V38.9297L74.6059 38.3254V34.186L70.6174 34.7903V27.3875H74.6059V23.4595H70.6174V17.6582Z" fill="white"></path><path d="M92.8553 17.6582H88.9575V38.1744L76.0254 39.2923V43.4318L88.9575 42.3441V51.5597H92.8553V41.9815L96.8437 41.6189V37.4794L92.8553 37.842V17.6582Z" fill="white"></path><path d="M86.9333 22.2204L77.6572 20.5586V24.7283L86.9333 26.3599V22.2204Z" fill="white"></path><path d="M86.9333 30.8318L77.6572 29.1699V33.3396L86.9333 35.0015V30.8318Z" fill="white"></path><path d="M128.721 29.11L129.325 25.9072H125.185L124.551 29.11H113.734L113.25 25.9072H109.081L109.594 29.11H101.738V32.9474H136.395V29.11H128.721Z" fill="white"></path><path d="M135.308 20.3776H122.164L121.499 17.6582H116.393L117.058 20.3776H102.826V24.1847H135.308V20.3776Z" fill="white"></path><path d="M129.96 35.7568H108.174C106.361 35.7568 104.881 37.2374 104.881 39.0503V48.0242C104.881 49.8372 106.361 51.3177 108.174 51.3177H129.96C131.772 51.3177 133.253 49.8372 133.253 48.0242V39.0503C133.253 37.2374 131.803 35.7568 129.96 35.7568ZM109.564 39.3223H128.6C129.144 39.3223 129.597 39.7755 129.597 40.3194V41.9208H108.597V40.3194C108.567 39.7453 109.02 39.3223 109.564 39.3223ZM128.6 47.7825H109.564C109.02 47.7825 108.567 47.3293 108.567 46.7854V45.1538H129.567V46.7854C129.567 47.3293 129.144 47.7825 128.6 47.7825Z" fill="white"></path></g><defs><clipPath id="clip0"><rect width="136.727" height="64" fill="white"></rect></clipPath></defs></svg>