<svg xmlns="http://www.w3.org/2000/svg" viewBox="0 0 24 264.42"><circle cx="12" cy="12" r="7.5" fill="#fff"/><rect y="11" width="4" height="2" rx="1" fill="#fff"/><rect x="20" y="11" width="4" height="2" rx="1" fill="#fff"/><rect x="20.07" y="18.07" width="4" height="2" rx="1" transform="translate(21.19 48.15) rotate(-135)" fill="#fff"/><rect x="5.93" y="3.93" width="4" height="2" rx="1" transform="translate(7.05 14.03) rotate(-135)" fill="#fff"/><rect x="20.07" y="3.93" width="4" height="2" rx="1" transform="translate(38.16 -7.18) rotate(135)" fill="#fff"/><rect x="6.19" y="18.31" width="4" height="2" rx="1" transform="translate(24.64 27.17) rotate(135)" fill="#fff"/><rect x="13" y="21" width="4" height="2" rx="1" transform="translate(-10 37) rotate(-90)" fill="#fff"/><rect x="13" y="1" width="4" height="2" rx="1" transform="translate(10 17) rotate(-90)" fill="#fff"/><path d="M27,39A12,12,0,0,1,4.39,44.61,12,12,0,0,0,22,34a11.92,11.92,0,0,0-1.39-5.61A12,12,0,0,1,27,39Z" transform="translate(-3)" fill="#fff"/><path d="M24.34,74.94,16,54.72a1,1,0,0,0-.58-.64h0a.64.64,0,0,0-.18-.06L15,54l-.19,0a.64.64,0,0,0-.18.06,1,1,0,0,0-.55.54l0,.1L5.66,74.94a1,1,0,1,0,1.85.77L10.72,68A.66.66,0,0,0,11,68h8a.66.66,0,0,0,.28,0l3.21,7.76a1,1,0,1,0,1.85-.77ZM11.53,66,15,57.6,18.47,66Z" transform="translate(-3)" fill="#fff"/><path d="M24.34,101.94,16,81.72a1,1,0,0,0-.58-.64h0a.64.64,0,0,0-.18-.06L15,81l-.19,0a.64.64,0,0,0-.18.06,1,1,0,0,0-.55.54l0,.1L5.66,101.94a1,1,0,0,0,1.85.77L10.72,95A.66.66,0,0,0,11,95h8a.66.66,0,0,0,.28,0l3.21,7.76a1,1,0,1,0,1.85-.77ZM11.53,93,15,84.6,18.47,93Z" transform="translate(-3)" fill="red"/><path d="M27,227.16a1.11,1.11,0,0,1,0,.19.64.64,0,0,1-.06.18,1,1,0,0,1-.54.55l-.1,0L8.43,237.34a1,1,0,0,1-1.31-.54v-6.17l16.28-3.47L7.12,223.69V219.2a1,1,0,0,1,1.31-.54l17.85,7.54a1,1,0,0,1,.64.58h0A.64.64,0,0,1,27,227Z" transform="translate(-3)" fill="#fff"/><path d="M27,254.16a1.11,1.11,0,0,1,0,.19.64.64,0,0,1-.06.18,1,1,0,0,1-.54.55l-.1,0L8.43,264.34a1,1,0,0,1-1.31-.54v-6.17l16.28-3.47L7.12,250.69V246.2a1,1,0,0,1,1.31-.54l17.85,7.54a1,1,0,0,1,.64.58h0A.64.64,0,0,1,27,254Z" transform="translate(-3)"/><rect x="3.5" y="111.5" width="17" height="4" rx="2" fill="#fff"/><rect x="3.5" y="118" width="17" height="4" rx="2" fill="#fff"/><path d="M23.2,155.2a2.68,2.68,0,0,1-1.93.8,2.72,2.72,0,0,1-1.93-.8L15,150.86l-4.34,4.34a2.72,2.72,0,0,1-3.86,0,2.68,2.68,0,0,1-.8-1.93,2.72,2.72,0,0,1,.8-1.93L11.14,147,6.8,142.66a2.72,2.72,0,0,1,0-3.86,2.68,2.68,0,0,1,1.93-.8,2.72,2.72,0,0,1,1.93.8L15,143.14l4.34-4.34a2.72,2.72,0,0,1,3.86,0,2.68,2.68,0,0,1,.8,1.93,2.72,2.72,0,0,1-.8,1.93L18.86,147l4.34,4.34A2.72,2.72,0,0,1,23.2,155.2Z" transform="translate(-3)" fill="#fff"/><rect x="3.5" y="124.5" width="17" height="4" rx="2" fill="#fff"/><path d="M10,170.85a1.81,1.81,0,0,1-1.34-.54,2.83,2.83,0,0,1-.54-2,6,6,0,0,1,2-4.36,6.91,6.91,0,0,1,5-1.94A6.82,6.82,0,0,1,20,163.74a6,6,0,0,1,1.88,4.56,7,7,0,0,1-.54,2.75,5.35,5.35,0,0,1-2.41,2.35A23.31,23.31,0,0,0,16,175.34a2.71,2.71,0,0,0-.88,2.21V180H14.06v-2.69a5,5,0,0,1,.47-2.34,5,5,0,0,1,1.68-1.68,8.18,8.18,0,0,0,2.61-2.41,5.45,5.45,0,0,0,.6-2.68,5.34,5.34,0,0,0-1.14-3.76,4.47,4.47,0,0,0-3.41-1.2,5.25,5.25,0,0,0-3.76,1.27A3.58,3.58,0,0,0,9.77,167a.82.82,0,0,0,.2.6,4.09,4.09,0,0,0,.61.47,1.6,1.6,0,0,1,.73.67,2,2,0,0,1,.21.94,1,1,0,0,1-.41.94A1.88,1.88,0,0,1,10,170.85Zm6.57,13.27A1.84,1.84,0,0,1,14.73,186a1.82,1.82,0,0,1-1.34-.54,1.79,1.79,0,0,1-.53-1.34,1.81,1.81,0,0,1,1.87-1.87,1.79,1.79,0,0,1,1.34.53A1.82,1.82,0,0,1,16.61,184.12Z" transform="translate(-3)"/><path d="M10,197.85a1.81,1.81,0,0,1-1.34-.54,2.83,2.83,0,0,1-.54-2,6,6,0,0,1,2-4.36,6.91,6.91,0,0,1,5-1.94A6.82,6.82,0,0,1,20,190.74a6,6,0,0,1,1.88,4.56,7,7,0,0,1-.54,2.75,5.35,5.35,0,0,1-2.41,2.35A23.31,23.31,0,0,0,16,202.34a2.71,2.71,0,0,0-.88,2.21V207H14.06v-2.69a5,5,0,0,1,.47-2.34,5,5,0,0,1,1.68-1.68,8.18,8.18,0,0,0,2.61-2.41,5.45,5.45,0,0,0,.6-2.68,5.34,5.34,0,0,0-1.14-3.76,4.47,4.47,0,0,0-3.41-1.2,5.25,5.25,0,0,0-3.76,1.27A3.58,3.58,0,0,0,9.77,194a.82.82,0,0,0,.2.6,4.09,4.09,0,0,0,.61.47,1.6,1.6,0,0,1,.73.67,2,2,0,0,1,.21.94,1,1,0,0,1-.41.94A1.88,1.88,0,0,1,10,197.85Zm6.57,13.27A1.84,1.84,0,0,1,14.73,213a1.82,1.82,0,0,1-1.34-.54,1.79,1.79,0,0,1-.53-1.34,1.81,1.81,0,0,1,1.87-1.87,1.79,1.79,0,0,1,1.34.53A1.82,1.82,0,0,1,16.61,211.12Z" transform="translate(-3)" fill="#fff"/></svg>