<svg id="e802780f-a78c-4fed-90bd-7c6004eee4cb" data-name="图层 1" xmlns="http://www.w3.org/2000/svg" viewBox="0 0 51.75 403.41"><text transform="translate(1.02 61.79)" font-size="72" fill="#fff" font-family="ArialMT, Arial" letter-spacing="-0.06em">A</text><text transform="translate(1.02 130.55)" font-size="72" fill="red" font-family="ArialMT, Arial" letter-spacing="-0.06em">A</text><circle cx="25.02" cy="178.06" r="11.78" fill="#fff"/><ellipse cx="5.45" cy="178.06" rx="5.45" ry="1.95" fill="#fff"/><ellipse cx="44.59" cy="178.06" rx="5.45" ry="1.95" fill="#fff"/><ellipse cx="25.02" cy="158.41" rx="1.95" ry="5.45" fill="#fff"/><ellipse cx="25.02" cy="197.72" rx="1.95" ry="5.45" fill="#fff"/><ellipse cx="41.88" cy="185.45" rx="1.95" ry="5.45" transform="translate(-119.85 92.42) rotate(-45)" fill="#fff"/><ellipse cx="10.13" cy="153.7" rx="1.95" ry="5.45" transform="translate(-106.7 60.67) rotate(-45)" fill="#fff"/><ellipse cx="10.13" cy="186.43" rx="5.45" ry="1.95" transform="translate(-129.84 70.26) rotate(-45)" fill="#fff"/><ellipse cx="42.23" cy="154.34" rx="5.45" ry="1.95" transform="translate(-97.75 83.56) rotate(-45)" fill="#fff"/><path d="M52.38,236.21A23.72,23.72,0,0,1,7.33,246.57a22.14,22.14,0,0,0,29.28-32.7A23.71,23.71,0,0,1,52.38,236.21Z" transform="translate(-0.99 8.49)"/><line x1="6.45" y1="290.04" x2="51.18" y2="290.04" fill="none" stroke="#fff" stroke-miterlimit="10"/><line x1="6.34" y1="304.38" x2="51.18" y2="304.38" fill="none" stroke="#fff" stroke-miterlimit="10"/><line x1="6.34" y1="318.41" x2="51.18" y2="318.41" fill="none" stroke="#fff" stroke-miterlimit="10"/><line x1="8.09" y1="359.76" x2="51.39" y2="403.06" fill="none" stroke="#fff" stroke-miterlimit="10"/><line x1="7.18" y1="358.84" x2="50.48" y2="402.15" fill="none" stroke="#fff" stroke-miterlimit="10"/><line x1="50.48" y1="358.84" x2="7.18" y2="402.15" fill="none" stroke="#fff" stroke-miterlimit="10"/></svg>